<svg xmlns="http://www.w3.org/2000/svg" width="19.641" height="16.877" viewBox="0 0 19.641 16.877"><g transform="translate(-0.183 -0.083)"><path d="M10.43,8.2a4.027,4.027,0,0,1-.509-3.615,4.471,4.471,0,0,0,.342-1.7A4.663,4.663,0,0,0,9.237,0C8.607,3.87,4.723,6.867,0,6.941A7,7,0,0,0,3.994,8.149a7.17,7.17,0,0,0,3.051-.669,7.337,7.337,0,0,0,3.111,1.045C10.9,8.525,10.43,8.2,10.43,8.2Z" transform="translate(9.247 8.435)" fill="#540cfa"/><path d="M17.591,7.251c0-4-3.9-7.251-8.7-7.251S.185,3.253.185,7.251A6.131,6.131,0,0,0,.651,9.572c.359,1.307.714,3.653-.651,5.467A10.27,10.27,0,0,0,4.231,13.6l.191-.126.208.1a10.077,10.077,0,0,0,4.257.932C13.686,14.5,17.591,11.248,17.591,7.251Z" transform="translate(0.183 0.083)" fill="#540cfa"/></g></svg>