<svg xmlns="http://www.w3.org/2000/svg" width="117" height="16.001" viewBox="0 0 117 16.001"><g transform="translate(-85)"><g transform="translate(85)" opacity="0.2"><path d="M19,1.894a7.59,7.59,0,0,1-2.239.636A4.032,4.032,0,0,0,18.474.3,7.642,7.642,0,0,1,16,1.275,3.826,3.826,0,0,0,13.154,0a3.971,3.971,0,0,0-3.9,4.038,4.134,4.134,0,0,0,.1.921A10.944,10.944,0,0,1,1.323.739,4.127,4.127,0,0,0,.8,2.77,4.078,4.078,0,0,0,2.529,6.131,3.771,3.771,0,0,1,.763,5.626v.051a4.01,4.01,0,0,0,3.126,3.96,3.788,3.788,0,0,1-1.76.069,3.926,3.926,0,0,0,3.641,2.806A7.658,7.658,0,0,1,.929,14.241,7.824,7.824,0,0,1,0,14.185,10.76,10.76,0,0,0,5.975,16c7.17,0,11.09-6.155,11.09-11.493,0-.175,0-.349-.012-.523A8.118,8.118,0,0,0,19,1.894Z"/><path d="M11,16h0c-.057,0-5.74-.056-7.48-.229-.084-.016-.185-.029-.3-.043A3.193,3.193,0,0,1,1.094,14.8,5.048,5.048,0,0,1,.22,12.541,35.962,35.962,0,0,1,0,8.861V7.132a36.013,36.013,0,0,1,.22-3.68,5.049,5.049,0,0,1,.874-2.258A2.987,2.987,0,0,1,3.161.246L3.3.231C6.342,0,10.95,0,11,0h.01c.046,0,4.653,0,7.7.231l.14.015a2.979,2.979,0,0,1,2.065.947,5.059,5.059,0,0,1,.874,2.258A35.963,35.963,0,0,1,22,7.132V8.859a35.987,35.987,0,0,1-.22,3.68,5.057,5.057,0,0,1-.874,2.26,2.986,2.986,0,0,1-2.065.949l-.141.015C15.654,15.991,11.046,16,11,16ZM8.555,4.572v6.857l6.111-3.417Z" transform="translate(95)"/><path d="M8.778,16H3a3,3,0,0,1-3-3V3A3,3,0,0,1,3,0H13a3,3,0,0,1,3,3V13a3,3,0,0,1-3,3H11V10.462h1.556L13,8.384H11V7a.863.863,0,0,1,.1-.725.729.729,0,0,1,.586-.209,1.986,1.986,0,0,1,.2.011H13V4a1.282,1.282,0,0,1-.326.026c-.132,0-.29,0-.473-.011C11.971,4.008,11.713,4,11.444,4a2.652,2.652,0,0,0-1.931.716,2.817,2.817,0,0,0-.735,2.053V8.384H7v2.077H8.778V16Z" transform="translate(49)"/></g></g></svg>