<svg xmlns="http://www.w3.org/2000/svg" xmlns:xlink="http://www.w3.org/1999/xlink" width="62" height="62" viewBox="0 0 62 62"><defs><linearGradient id="a" x2="1" y2="1" gradientUnits="objectBoundingBox"><stop offset="0" stop-color="#32fbfc"/><stop offset="1" stop-color="#3214f2"/></linearGradient><filter id="b" x="0" y="0" width="62" height="62" filterUnits="userSpaceOnUse"><feOffset dy="2" input="SourceAlpha"/><feGaussianBlur stdDeviation="2" result="c"/><feFlood flood-color="#0826a8" flood-opacity="0.149"/><feComposite operator="in" in2="c"/><feComposite in="SourceGraphic"/></filter></defs><g transform="translate(6 4)"><g transform="matrix(1, 0, 0, 1, -6, -4)" filter="url(#b)"><rect width="50" height="50" rx="14" transform="translate(6 4)" fill="url(#a)"/></g><g transform="translate(15 11)"><path d="M3.892,24A3.892,3.892,0,0,1,0,20.108V7.135A3.892,3.892,0,0,1,3.892,3.244h8.627a6.766,6.766,0,0,0-.187,1.3H3.892A2.6,2.6,0,0,0,1.3,7.135V20.108A2.6,2.6,0,0,0,3.892,22.7H16.865a2.6,2.6,0,0,0,2.595-2.595V11.668a6.837,6.837,0,0,0,1.3-.187v8.627A3.892,3.892,0,0,1,16.865,24ZM14.27,4.865A4.865,4.865,0,1,1,19.135,9.73,4.865,4.865,0,0,1,14.27,4.865Z" fill="#fff"/></g></g></svg>