<svg xmlns="http://www.w3.org/2000/svg" xmlns:xlink="http://www.w3.org/1999/xlink" width="62" height="62" viewBox="0 0 62 62"><defs><linearGradient id="a" x2="1" y2="1" gradientUnits="objectBoundingBox"><stop offset="0" stop-color="#9c09db"/><stop offset="1" stop-color="#1c0fd7"/></linearGradient><filter id="b" x="0" y="0" width="62" height="62" filterUnits="userSpaceOnUse"><feOffset dy="2" input="SourceAlpha"/><feGaussianBlur stdDeviation="2" result="c"/><feFlood flood-color="#240880" flood-opacity="0.149"/><feComposite operator="in" in2="c"/><feComposite in="SourceGraphic"/></filter></defs><g transform="translate(6 4)"><g transform="matrix(1, 0, 0, 1, -6, -4)" filter="url(#b)"><rect width="50" height="50" rx="14" transform="translate(6 4)" fill="url(#a)"/></g><g transform="translate(18 15)"><path d="M10.932.523,19.851,15.4a1.05,1.05,0,0,1-.384,1.452,1.1,1.1,0,0,1-.548.146H1.081A1.071,1.071,0,0,1,0,15.939,1.046,1.046,0,0,1,.149,15.4L9.068.523a1.092,1.092,0,0,1,1.48-.376A1.071,1.071,0,0,1,10.932.523Z" transform="translate(17) rotate(90)" fill="#fff"/></g></g></svg>